<svg width="40" height="40" viewBox="0 0 40 40" fill="none" xmlns="http://www.w3.org/2000/svg">
<path d="M35.9551 21.8438C35.955 21.8437 35.9552 21.844 35.9551 21.8438L29.9132 6.40316C29.785 6.0751 29.4196 5.91494 29.0973 6.04545C29.0971 6.04553 29.0976 6.04529 29.0973 6.04545L4.58608 15.9793C4.48612 16.0233 4.39944 16.0934 4.33481 16.1826C4.13097 16.2904 4.0022 16.5038 4 16.7376V33.3607C4 33.7137 4.28126 34 4.62817 34H31.0113C31.3582 34 31.6394 33.7137 31.6394 33.3607V24.2819L35.6044 22.6746C35.9267 22.5438 36.0837 22.1718 35.9551 21.8438ZM30.3831 32.7213H5.25634V17.3769H30.3831V32.7213ZM14.481 16.1014L24.9991 11.8357C25.9378 12.84 27.2385 13.4107 28.6004 13.4162L29.6494 16.1014H14.481ZM31.6394 22.9086V16.7376C31.6394 16.3845 31.3582 16.0982 31.0113 16.0982H31.0012L29.6701 12.6956C29.6554 12.6673 29.6382 12.6402 29.6186 12.6151C29.5513 12.3071 29.2711 12.097 28.9622 12.1228C27.695 12.2403 26.4554 11.697 25.6687 10.6791C25.4729 10.4332 25.1289 10.3721 24.8628 10.5359C24.8329 10.5395 24.8033 10.5451 24.7742 10.5525L11.9331 15.7568C11.7778 15.8188 11.6535 15.9418 11.5883 16.0982H7.68861L28.9785 7.47023L34.556 21.7245L31.6394 22.9086Z" fill="currentColor"/>
<path d="M6.96119 28.4051C8.18078 28.772 9.13513 29.7421 9.49711 30.9829C9.57649 31.2538 9.82124 31.4393 10.0989 31.4394C10.1315 31.4373 10.1638 31.4324 10.1956 31.4247C10.2238 31.4329 10.2526 31.4388 10.2817 31.4426H25.3577C25.3837 31.4392 25.4093 31.4338 25.4344 31.4266C25.7482 31.5043 26.0645 31.3084 26.1409 30.989C26.1412 30.9878 26.1415 30.9867 26.1417 30.9855C26.5027 29.7434 27.4572 28.7719 28.6776 28.4044C28.9736 28.3124 29.1575 28.0122 29.1085 27.7011C29.1169 27.6701 29.123 27.6385 29.1268 27.6065V22.4917C29.1231 22.4597 29.1168 22.428 29.1079 22.3971C29.1572 22.086 28.9732 21.7856 28.677 21.6938C27.4566 21.3264 26.5023 20.3545 26.1423 19.1121C26.0514 18.8088 25.7536 18.6212 25.4463 18.6735C25.4173 18.6653 25.3877 18.6593 25.3577 18.6556H10.2817C10.25 18.6595 10.2187 18.6659 10.1881 18.6748C9.88257 18.6253 9.5878 18.8124 9.49711 19.1134C9.13583 20.3553 8.18141 21.3264 6.96119 21.6938C6.66524 21.7859 6.48135 22.0861 6.53026 22.3971C6.5221 22.4282 6.51621 22.4598 6.51268 22.4917V27.6065C6.51629 27.6366 6.52218 27.6663 6.53026 27.6954C6.47875 28.0084 6.66304 28.312 6.96119 28.4051ZM7.76901 22.7513C9.03038 22.2357 10.0301 21.2181 10.5367 19.9343H25.1021C25.6089 21.2181 26.6089 22.2357 27.8704 22.7513V27.3469C26.6095 27.8631 25.6099 28.8805 25.1027 30.1639H10.5367C10.0296 28.8805 9.02998 27.8631 7.76901 27.3469V22.7513Z" fill="currentColor"/>
<path d="M17.8197 28.8852C19.9013 28.8852 21.5887 27.1678 21.5887 25.0491C21.5887 22.9305 19.9013 21.213 17.8197 21.213C15.7381 21.213 14.0507 22.9305 14.0507 25.0491C14.0527 27.1669 15.739 28.8831 17.8197 28.8852ZM17.8197 22.4917C19.2074 22.4917 20.3324 23.6367 20.3324 25.0491C20.3324 26.4615 19.2074 27.6065 17.8197 27.6065C16.432 27.6065 15.307 26.4615 15.307 25.0491C15.307 23.6367 16.432 22.4917 17.8197 22.4917Z" fill="currentColor"/>
<path d="M10.9099 26.0081C11.4302 26.0081 11.8521 25.5787 11.8521 25.0491C11.8521 24.5195 11.4302 24.0901 10.9099 24.0901C10.3895 24.0901 9.96761 24.5195 9.96761 25.0491C9.96761 25.5788 10.3895 26.0081 10.9099 26.0081ZM10.9099 24.7294C11.0833 24.7294 11.2239 24.8726 11.2239 25.0491C11.2239 25.2257 11.0833 25.3688 10.9099 25.3688C10.7364 25.3688 10.5958 25.2257 10.5958 25.0491C10.5958 24.8726 10.7364 24.7294 10.9099 24.7294Z" fill="currentColor"/>
<path d="M24.7296 26.0081C25.2499 26.0081 25.6718 25.5787 25.6718 25.0491C25.6718 24.5195 25.2499 24.0901 24.7296 24.0901C24.2092 24.0901 23.7873 24.5195 23.7873 25.0491C23.7873 25.5788 24.2092 26.0081 24.7296 26.0081ZM24.7296 24.7294C24.903 24.7294 25.0437 24.8726 25.0437 25.0491C25.0437 25.2257 24.903 25.3688 24.7296 25.3688C24.5561 25.3688 24.4155 25.2257 24.4155 25.0491C24.4155 24.8726 24.5561 24.7294 24.7296 24.7294Z" fill="currentColor"/>
</svg>
