<svg width="40" height="40" viewBox="0 0 40 40" fill="none" xmlns="http://www.w3.org/2000/svg">
<path d="M21.0781 9.33785V7.14215H22.1607C22.4478 7.14215 22.7232 7.0293 22.9262 6.82844C23.1292 6.62757 23.2433 6.35514 23.2433 6.07107C23.2433 5.78701 23.1292 5.51458 22.9262 5.31371C22.7232 5.11284 22.4478 5 22.1607 5H17.8303C17.5432 5 17.2679 5.11284 17.0648 5.31371C16.8618 5.51458 16.7477 5.78701 16.7477 6.07107C16.7477 6.35514 16.8618 6.62757 17.0648 6.82844C17.2679 7.0293 17.5432 7.14215 17.8303 7.14215H18.9129V9.33785C16.2232 9.5567 13.6709 10.6057 11.6163 12.3369L10.6961 11.4264L11.0208 11.1158C11.2247 10.9141 11.3392 10.6406 11.3392 10.3554C11.3392 10.0701 11.2247 9.79659 11.0208 9.5949C10.817 9.39322 10.5405 9.27991 10.2522 9.27991C9.96391 9.27991 9.68742 9.39322 9.48356 9.5949L7.31838 11.7371C7.11453 11.9387 7 12.2123 7 12.4975C7 12.7827 7.11453 13.0563 7.31838 13.258C7.52224 13.4597 7.79873 13.573 8.08702 13.573C8.37532 13.573 8.6518 13.4597 8.85566 13.258L9.16961 12.9367L10.0898 13.8471C8.20854 16.0477 7.12949 18.8101 7.02599 21.6905C6.9225 24.5709 7.80057 27.4021 9.51916 29.7294C11.2377 32.0567 13.6971 33.7449 16.5022 34.5229C19.3072 35.3009 22.2952 35.1235 24.9861 34.0193C27.6771 32.915 29.9147 30.9479 31.3397 28.4341C32.7647 25.9202 33.2943 23.0054 32.8435 20.1579C32.3926 17.3104 30.9874 14.6955 28.8537 12.7332C26.7199 10.7709 23.9814 9.57507 21.0781 9.33785ZM19.9955 32.8479C17.8544 32.8479 15.7613 32.2197 13.981 31.0428C12.2007 29.8659 10.8131 28.1931 9.99369 26.236C9.1743 24.2789 8.95991 22.1253 9.37763 20.0476C9.79535 17.9699 10.8264 16.0615 12.3404 14.5635C13.8545 13.0656 15.7835 12.0455 17.8835 11.6322C19.9835 11.219 22.1602 11.4311 24.1384 12.2417C26.1166 13.0524 27.8074 14.4252 28.9969 16.1866C30.1865 17.948 30.8214 20.0188 30.8214 22.1372C30.8214 23.5437 30.5414 24.9365 29.9974 26.236C29.4533 27.5355 28.6559 28.7162 27.6506 29.7108C26.6453 30.7054 25.4519 31.4943 24.1384 32.0326C22.825 32.5709 21.4172 32.8479 19.9955 32.8479Z" fill="currentColor"/>
<path d="M21.0781 21.0661V16.7818C21.0781 16.4977 20.9641 16.2253 20.761 16.0244C20.558 15.8236 20.2826 15.7107 19.9955 15.7107C19.7084 15.7107 19.433 15.8236 19.23 16.0244C19.027 16.2253 18.9129 16.4977 18.9129 16.7818V21.5588C18.9131 21.7109 18.9461 21.8612 19.0095 21.9997C19.073 22.1382 19.1655 22.2617 19.281 22.3621L23.6114 26.1537C23.7168 26.2539 23.8416 26.3319 23.9783 26.383C24.115 26.4342 24.2607 26.4574 24.4067 26.4514C24.5527 26.4453 24.696 26.4101 24.8279 26.3477C24.9597 26.2854 25.0775 26.1974 25.174 26.0888C25.2706 25.9803 25.3439 25.8535 25.3896 25.7162C25.4353 25.5788 25.4524 25.4338 25.4399 25.2897C25.4275 25.1457 25.3856 25.0056 25.317 24.878C25.2483 24.7503 25.1542 24.6378 25.0404 24.5471L21.0781 21.0661Z" fill="currentColor"/>
</svg>
