<svg width="40" height="40" viewBox="0 0 40 40" fill="none" xmlns="http://www.w3.org/2000/svg">
<path d="M36 28.0382V31.3461C36 32.2613 35.2747 33 34.4 33H5.6C4.71465 33 4 32.2613 4 31.3461V28.0382C4 27.123 4.71465 26.3842 5.6 26.3842V24.1789C5.6 18.5114 8.65065 13.5937 13.152 11.0797L14.8053 26.3842H16.9493L15.1146 9.44781C14.976 8.14671 15.968 7 17.2373 7H22.752C24.0213 7 25.0133 8.14671 24.8747 9.44781L23.0507 26.3842H25.184L26.848 11.0797C28.0747 11.7743 29.1947 12.6344 30.176 13.6488C32.7893 16.3503 34.4 20.0662 34.4 24.1789V26.3842C35.2747 26.3842 36 27.123 36 28.0382Z" fill="currentColor"/>
</svg>
